
<svg xmlns="http://www.w3.org/2000/svg" version="1.1" xmlns:xlink="http://www.w3.org/1999/xlink" preserveAspectRatio="none" x="0px" y="0px" width="1920px" height="210px" viewBox="0 0 1920 210">
<defs>
<linearGradient id="Gradient_1" gradientUnits="userSpaceOnUse" x1="0" y1="683.85" x2="1920" y2="683.85" spreadMethod="pad">
<stop  offset="0%" stop-color="#5B5B5D"/>

<stop  offset="24.313725490196077%" stop-color="#43C0EC"/>

<stop  offset="49.411764705882355%" stop-color="#2C85BD"/>

<stop  offset="75.29411764705883%" stop-color="#363C75"/>

<stop  offset="100%" stop-color="#939497"/>
</linearGradient>

<g id="Layer1_0_FILL">
<path fill="url(#Gradient_1)" stroke="none" d="
M 658.65 162.3
L 1112.25 201.8
Q 1518.05 231.6 1920 173.3 1518.05 216.6 1112.25 186.8
L 658.65 147.3
Q 379.75 125.25 85 164.65 42.65 170.3 0 177.2 42.65 172.15 85 168.15 379.75 140.25 658.65 162.3 Z"/>

<path fill="#FFFFFF" stroke="none" d="
M 1920 173.3
L 1920 1.9 0 1.9 0 177.2
Q 42.65 170.3 85 164.65 379.75 125.25 658.65 147.3
L 1112.25 186.8
Q 1518.05 216.6 1920 173.3 Z"/>
</g>
</defs>

<g transform="matrix( 1, 0, 0, 1, 0,0) ">
<use xlink:href="#Layer1_0_FILL"/>
</g>
</svg>
